<svg width="902" height="800" viewBox="0 0 902 800" fill="none" xmlns="http://www.w3.org/2000/svg">
<path d="M885.073 566.958C915.832 633.873 902.374 719.382 842.769 765.848C810.08 791.864 767.794 803.016 727.402 799.305C633.196 790.008 563.976 695.203 585.119 605.983C592.804 572.525 615.877 546.509 627.423 514.907C629.354 511.196 631.265 505.611 631.265 501.899C638.95 481.45 644.723 457.289 644.723 434.984C644.723 425.688 644.724 416.391 642.793 408.968C642.793 401.527 640.862 394.104 638.95 386.663C637.02 381.078 635.108 375.511 633.177 369.925C606.261 297.424 535.13 247.248 450.521 247.248C365.912 247.248 294.779 299.299 267.863 369.925C265.933 375.511 264.021 381.078 262.09 386.663C260.159 394.104 258.248 401.527 258.248 408.968C256.317 418.265 256.317 425.706 256.317 434.984C256.317 459.145 260.16 481.45 269.775 501.899C271.706 505.611 271.706 511.196 273.618 514.907C285.145 546.509 308.219 574.381 315.922 605.983C337.065 695.203 265.933 790.008 173.639 799.305C133.265 803.016 90.9603 791.864 58.2713 765.848C-1.33355 719.382 -14.7912 633.873 15.9672 566.958C23.6521 550.22 190.92 282.561 265.914 167.306C290.899 130.137 313.973 91.0942 340.888 57.6368C346.661 52.0512 352.416 44.6287 358.189 39.0431C381.262 14.8825 413.952 0 450.483 0C487.014 0 519.703 14.8638 542.776 39.0431C548.549 44.6287 554.304 50.1955 560.077 57.6368C588.923 92.9499 611.997 130.137 635.051 167.306C710.026 284.416 877.295 550.22 884.998 566.958H885.073ZM838.926 118.985C804.326 118.985 777.41 92.9686 777.41 59.5111C777.41 26.0537 804.326 0.0375239 838.926 0.0375239C873.527 0.0375239 900.444 26.0537 900.444 59.5111C900.444 92.9686 873.527 118.985 838.926 118.985Z" fill="#007BFF"/>
</svg>
